Coordinates
version=1
nRows=19
nColumns=33
inDegrees=yes

Units are S.I. units (second, meters, Newtons, ...)
Angles are in degrees.

endheader
time	ground_thorax_rot_x	ground_thorax_rot_y	ground_thorax_rot_z	ground_thorax_tx	ground_thorax_ty	ground_thorax_tz	clav_prot_r	clav_elev_r	scapula_abduction_r	scapula_elevation_r	scapula_upward_rot_r	scapula_winging_r	shoulder_elv_r	plane_of_elev_r	axial_rot_r	elbow_flexion_r	pro_sup_r	wrist_flex_r	wrist_dev_r	clav_prot_l	clav_elev_l	scapula_abduction_l	scapula_elevation_l	scapula_upward_rot_l	scapula_winging_l	shoulder_elv_l	plane_of_elev_l	axial_rot_l	elbow_flexion_l	pro_sup_l	wrist_flex_l	wrist_dev_l
      3.10000000	      1.24925152	      6.40835221	     12.26602596	     -0.11676695	      1.03349557	      0.03200563	      2.92600114	      9.94409962	     14.63239125	      6.49278961	     21.46690371	     -9.22051867	     18.54435708	    -73.28796813	     54.46114319	     63.41974764	    -25.41425489	     70.00000021	    -24.99999983	     14.51398004	     -6.29372834	    -22.78657076	    -19.77268268	    -44.34695732	      2.34271928	     63.29660679	    -34.14665470	     -0.85815359	     71.50516670	     16.58748877	     -0.45101547	    -24.99999983
      3.11000000	      1.22664070	      6.40445359	     12.18566933	     -0.11627873	      1.03349358	      0.03214709	      2.90070368	     10.01127261	     14.79789980	      6.45130274	     21.75245749	     -9.30902571	     18.81562649	    -73.08740814	     54.24306347	     64.03816369	    -25.45344727	     70.00000021	    -24.99999983	     14.60756366	     -6.39578657	    -22.85490011	    -19.54702337	    -44.06446683	      2.42693187	     63.54759207	    -33.75244211	     -0.72354144	     71.68383178	     16.41666664	     -0.19278065	    -24.99999983
      3.12000000	      1.48640089	      6.41893375	     12.25003160	     -0.11606708	      1.03383191	      0.03217157	      3.13936816	      9.93777895	     15.39729643	      6.33450625	     21.88747715	     -9.50058850	     19.88249783	    -73.46103855	     54.42713660	     64.90996563	    -26.05610909	     70.00000021	    -24.99999983	     14.81058546	     -7.13697988	    -23.25935605	    -18.96996096	    -44.33263598	      2.61708308	     63.94904897	    -33.33289840	     -0.08799560	     71.79050358	     14.22601380	      4.49313124	    -24.99999983
      3.13000000	      1.37794878	      6.37899308	     12.12420454	     -0.11541863	      1.03360148	      0.03215345	      3.08289936	      9.99226409	     15.53656888	      6.27257887	     22.20635141	     -9.58442649	     20.08126239	    -73.01163532	     54.25266036	     65.35479145	    -26.09889250	     70.00000021	    -24.99999983	     14.86710312	     -7.10665719	    -23.23843524	    -18.82392850	    -43.94861515	      2.66561171	     64.22265982	    -32.84858297	      0.06940789	     71.97228668	     14.15409291	      4.70759964	    -24.97230304
      3.14000000	      1.20586435	      6.34069152	     12.26555746	     -0.11489121	      1.03348625	      0.03221480	      3.10646611	     10.02148695	     15.78873520	      6.20863624	     22.46406514	     -9.69293375	     20.17999621	    -72.64409273	     54.19655366	     65.71416567	    -26.11283052	     69.94409165	    -24.99999983	     14.98913877	     -7.14679319	    -23.34229877	    -18.63008552	    -43.61144457	      2.76872722	     64.53148004	    -32.53854295	      0.10269157	     71.88609783	     14.12183799	      4.82324924	    -24.88336092
      3.15000000	      1.28989490	      6.30676476	     12.10482220	     -0.11445575	      1.03335667	      0.03203952	      3.15667252	     10.12798872	     16.21133322	      6.15201243	     22.89432933	     -9.87771647	     21.00691609	    -72.53062032	     54.23929515	     66.86267632	    -26.81070782	     65.62461217	    -24.99999983	     15.01022537	     -7.25771198	    -23.24097880	    -18.32403897	    -43.15908387	      2.79647746	     64.82311105	    -31.72890114	      0.26436875	     72.07908599	     12.91570756	      9.17456964	    -21.86908005
      3.16000000	      1.24885618	      6.33567930	     11.96087427	     -0.11396861	      1.03320039	      0.03186830	      3.22136753	     10.09333202	     16.56735447	      6.03290371	     23.15446118	    -10.01074254	     21.35269113	    -72.10859348	     54.00800732	     67.19222301	    -26.64976106	     65.38558042	    -24.99999983	     15.17520781	     -7.44348061	    -23.38843095	    -17.94882523	    -42.72240596	      2.94210012	     65.15845470	    -31.12622377	      0.19351943	     71.94150550	     12.87734463	      9.40582204	    -21.64823319
      3.17000000	      1.19452090	      6.18566195	     11.94275205	     -0.11357341	      1.03339115	      0.03177690	      3.31093697	      9.78009410	     16.78207358	      5.78839315	     23.07786651	    -10.04139080	     23.35897346	    -72.03434726	     53.55318037	     68.59970679	    -22.67690409	     58.06522068	    -24.99999983	     15.23531951	     -7.90665350	    -23.40592138	    -17.42506888	    -42.50862555	      2.98617708	     65.72431672	    -30.74015797	      0.57023092	     72.16695449	     11.63425552	     13.64900391	    -17.90967546
      3.18000000	      1.13459499	      6.24992719	     11.96052239	     -0.11316973	      1.03316076	      0.03150642	      3.43711028	      9.76622879	     17.28535454	      5.67175889	     23.38202298	    -10.22371889	     23.51616407	    -71.55788831	     53.52448917	     68.67824566	    -22.72739080	     57.72281953	    -24.99999983	     15.45654166	     -8.07713345	    -23.64824001	    -17.05049835	    -42.04991755	      3.17522142	     65.99661681	    -30.03562767	      0.26572097	     71.66988001	     11.66922993	     13.71309594	    -17.78471627
      3.19000000	      1.10039033	      6.13591598	     12.04411775	     -0.11282119	      1.03283946	      0.03109815	      3.50713605	      9.81941062	     18.03115455	      5.47118288	     24.12422101	    -10.53196206	     23.92341270	    -71.50895472	     53.57531635	     69.39404023	    -23.17289348	     52.36024143	    -24.99999983	     15.70869284	     -8.02915998	    -23.91023367	    -16.78560587	    -41.39838950	      3.40667501	     65.66417034	    -29.14477751	      0.29641337	     70.96327053	     10.79810559	     15.14463813	    -16.22425733
      3.20000000	      1.06543627	      6.12789796	     12.01672271	     -0.11258423	      1.03262816	      0.03081248	      3.66406181	      9.54808908	     18.31814456	      5.27495662	     24.00803307	    -10.58331822	     25.43179832	    -71.13590447	     52.88597447	     70.47938810	    -19.46516128	     45.18400176	    -24.99999983	     16.00607538	     -8.29845238	    -24.22637819	    -16.20822820	    -40.70339320	      3.66358124	     65.65680529	    -28.48336690	      0.21418029	     70.38987338	      9.13593476	     17.56557768	    -13.60247140
      3.21000000	      1.00411855	      6.09747227	     11.96178649	     -0.11216755	      1.03269374	      0.03035629	      3.77877935	      9.28301122	     18.84344981	      4.96191197	     24.27349130	    -10.74372797	     25.66906297	    -70.43419907	     52.69566211	     70.09125218	    -19.40219754	     44.73698831	    -24.99999983	     16.22354107	     -8.66360510	    -24.46460242	    -15.66054474	    -40.25549069	      3.83671951	     65.93290423	    -27.74788489	     -0.00902224	     69.45420727	      9.21952403	     17.54462816	    -13.43667618
      3.22000000	      0.86268133	      6.03050512	     12.05500333	     -0.11184331	      1.03222406	      0.02985405	      3.88307079	      9.12999672	     19.62051059	      4.62981097	     24.90409640	    -11.02396346	     25.83599953	    -70.13312442	     52.58440287	     70.39350143	    -19.14588047	     39.19229858	    -24.99999983	     16.52327037	     -8.63876110	    -24.82131598	    -15.35868679	    -39.58135253	      4.11674239	     65.68428130	    -26.77615171	     -0.12571996	     68.30046459	      8.33045615	     18.47614617	    -12.28605678
      3.23000000	      0.83263051	      5.94836557	     12.04777591	     -0.11164159	      1.03184729	      0.02945269	      4.11657621	      8.85375361	     20.05680635	      4.42303491	     24.80433475	    -11.11844628	     26.76188430	    -69.33591699	     51.78057170	     70.89990189	    -15.67881987	     32.05694758	    -24.99999983	     16.87274659	     -8.84651973	    -25.23015872	    -14.79100579	    -38.79655083	      4.42569996	     65.32897117	    -25.91672564	     -0.11001779	     67.06759183	      6.69511450	     20.16074453	    -10.31837202
      3.24000000	      0.74286753	      5.93282031	     11.98786005	     -0.11125650	      1.03171794	      0.02894864	      4.31813326	      8.42965651	     20.69061265	      4.01189156	     24.96819770	    -11.27990073	     26.95031878	    -68.50993729	     51.61532025	     70.18077362	    -15.67776767	     31.70115524	    -24.99999983	     17.13365183	     -9.33623862	    -25.53801293	    -14.11894426	    -38.32460461	      4.61778117	     65.67198208	    -25.20272450	     -0.44221552	     65.80858854	      6.83526418	     20.14852312	    -10.09627615
      3.25000000	      0.64639764	      5.88234060	     11.95261768	     -0.11095765	      1.03151961	      0.02851086	      4.51588899	      7.89717019	     21.37883677	      3.49648900	     25.18030970	    -11.43982388	     27.18623295	    -67.92694765	     50.89980102	     70.12887228	    -15.10476232	     26.09362267	    -24.99999983	     17.49520877	     -9.70467642	    -25.98478604	    -13.44979077	    -37.63211849	      4.90975650	     65.55562234	    -24.43474101	     -0.53509240	     64.30035974	      5.88926113	     21.13630438	     -8.98720076
      3.26000000	      0.57016637	      5.83982586	     11.96653614	     -0.11059087	      1.03118185	      0.02794493	      4.77423995	      7.48187645	     22.11958611	      3.08739667	     25.36887055	    -11.63010787	     27.29149562	    -66.94383909	     50.95594683	     68.95655869	    -15.18139947	     25.64737283	    -24.99999983	     17.75798932	    -10.13306186	    -26.29972748	    -12.81919269	    -37.12757347	      5.09847623	     65.71303250	    -23.58977054	     -0.88639784	     62.69288851	      6.02768224	     21.20142104	     -8.66271635
      3.27000000	      0.55482777	      5.58956854	     11.84551066	     -0.10994961	      1.03024351	      0.02721226	      4.96322260	      7.34237411	     23.06101210	      2.76682347	     26.04127147	    -11.94859612	     27.15095628	    -65.75184122	     51.40519660	     67.70860103	    -16.42345370	     23.28782360	    -24.99999983	     17.91811186	     -9.93366254	    -26.44239378	    -12.60052074	    -36.28938113	      5.29603004	     64.96269659	    -22.11643809	     -0.62590925	     60.70617749	      5.64356432	     21.98059022	     -7.91380362
      3.28000000	      0.47071998	      5.58933534	     11.90987047	     -0.10959940	      1.03002351	      0.02672911	      5.31429784	      6.72268488	     23.84297379	      2.24763038	     26.03866598	    -12.10160555	     27.24463810	    -64.78083473	     51.38494999	     66.27600188	    -16.74945292	     22.69053573	    -24.99999983	     18.21451582	    -10.54208032	    -26.80496222	    -11.80642847	    -35.78134139	      5.47682670	     65.16196247	    -21.40818444	     -1.04399335	     58.81595205	      5.77566462	     22.14581382	     -7.51833987
